<svg width="14" height="14" viewBox="0 0 14 14" fill="none" xmlns="http://www.w3.org/2000/svg">
<path d="M1.64343 7.78552C1.2096 7.78552 0.85791 7.43383 0.85791 7V7C0.85791 6.56617 1.2096 6.21449 1.64343 6.21449L12.6407 6.21449C13.0745 6.21449 13.4262 6.56617 13.4262 7V7C13.4262 7.43383 13.0745 7.78552 12.6407 7.78552L1.64343 7.78552Z" fill="#9D9D9D" style="fill:#9D9D9D;fill:color(display-p3 0.6157 0.6157 0.6157);fill-opacity:1;"/>
<path d="M7.14196 13.2841C6.70813 13.2841 6.35645 12.9324 6.35645 12.4985L6.35645 1.50128C6.35645 1.06745 6.70813 0.715761 7.14196 0.715761V0.715761C7.57579 0.715761 7.92748 1.06745 7.92748 1.50128L7.92748 12.4985C7.92748 12.9324 7.57579 13.2841 7.14196 13.2841V13.2841Z" fill="#9D9D9D" style="fill:#9D9D9D;fill:color(display-p3 0.6157 0.6157 0.6157);fill-opacity:1;"/>
</svg>
