<svg width="167" height="168" viewBox="0 0 167 168" fill="none" xmlns="http://www.w3.org/2000/svg">
<path d="M139.22 9.82185C144.335 4.70859 152.628 4.7107 157.741 9.82657V9.82657C162.854 14.9424 162.852 23.2348 157.736 28.348L28.0531 157.965C22.9372 163.079 14.6448 163.076 9.53159 157.961V157.961C4.41833 152.845 4.42044 144.552 9.53631 139.439L139.22 9.82185Z" fill="#9D9D9D" style="fill:#9D9D9D;fill:color(display-p3 0.6157 0.6157 0.6157);fill-opacity:1;"/>
<path d="M9.56919 9.78938C14.685 4.67612 22.9774 4.67823 28.0906 9.79409L157.708 139.477C162.821 144.593 162.819 152.886 157.703 157.999V157.999C152.587 163.112 144.295 163.11 139.182 157.994L9.56447 28.3108C4.45121 23.195 4.45332 14.9026 9.56919 9.78938V9.78938Z" fill="#9D9D9D" style="fill:#9D9D9D;fill:color(display-p3 0.6157 0.6157 0.6157);fill-opacity:1;"/>
</svg>
