<svg width="236" height="236" viewBox="0 0 236 236" fill="none" xmlns="http://www.w3.org/2000/svg">
<path d="M104.819 26.2129C104.821 18.9798 110.686 13.1177 117.919 13.1195V13.1195C125.153 13.1214 131.015 18.9865 131.013 26.2195L130.966 209.573C130.964 216.806 125.099 222.668 117.866 222.666V222.666C110.633 222.664 104.771 216.799 104.773 209.566L104.819 26.2129Z" fill="#9D9D9D" style="fill:#9D9D9D;fill:color(display-p3 0.6157 0.6157 0.6157);fill-opacity:1;"/>
<path d="M13.119 117.868C13.1209 110.635 18.9859 104.772 26.219 104.774L209.572 104.821C216.805 104.823 222.667 110.688 222.665 117.921V117.921C222.664 125.154 216.799 131.016 209.565 131.014L26.2123 130.968C18.9792 130.966 13.1172 125.101 13.119 117.868V117.868Z" fill="#9D9D9D" style="fill:#9D9D9D;fill:color(display-p3 0.6157 0.6157 0.6157);fill-opacity:1;"/>
</svg>
