<svg width="19" height="16" viewBox="0 0 19 16" fill="none" xmlns="http://www.w3.org/2000/svg">
<path d="M8.41992 1C8.41992 0.447715 8.86764 0 9.41992 0H9.58005C10.1323 0 10.5801 0.447715 10.5801 1V15C10.5801 15.5523 10.1323 16 9.58005 16H9.41992C8.86764 16 8.41992 15.5523 8.41992 15V1Z" fill="white" style="fill:white;fill-opacity:1;"/>
<path d="M0.859497 8C0.859497 7.44772 1.30721 7 1.8595 7H17.1405C17.6928 7 18.1405 7.44772 18.1405 8C18.1405 8.55228 17.6928 9 17.1405 9H1.8595C1.30721 9 0.859497 8.55228 0.859497 8Z" fill="white" style="fill:white;fill-opacity:1;"/>
</svg>
