<svg width="11" height="10" viewBox="0 0 11 10" fill="none" xmlns="http://www.w3.org/2000/svg">
<path d="M8.47591 0.557257C8.78275 0.250571 9.28011 0.250698 9.5868 0.55754V0.55754C9.89348 0.864382 9.89336 1.36175 9.58652 1.66843L1.8083 9.44269C1.50146 9.74937 1.00409 9.74925 0.697407 9.44241V9.44241C0.390721 9.13556 0.390848 8.6382 0.69769 8.33151L8.47591 0.557257Z" fill="#9D9D9D" style="fill:#9D9D9D;fill:color(display-p3 0.6157 0.6157 0.6157);fill-opacity:1;"/>
<path d="M0.69954 0.555304C1.00638 0.248618 1.50375 0.248745 1.81043 0.555587L9.58469 8.3338C9.89137 8.64065 9.89125 9.13801 9.5844 9.4447V9.4447C9.27756 9.75138 8.7802 9.75125 8.47351 9.44441L0.699257 1.6662C0.392571 1.35935 0.392698 0.86199 0.69954 0.555304V0.555304Z" fill="#9D9D9D" style="fill:#9D9D9D;fill:color(display-p3 0.6157 0.6157 0.6157);fill-opacity:1;"/>
</svg>
