<svg width="33" height="168" viewBox="0 0 33 168" fill="none" xmlns="http://www.w3.org/2000/svg">
<path d="M-0.000793457 151.016C-0.000793457 146.587 1.73759 142.339 4.83194 139.208C7.92629 136.076 12.1231 134.316 16.4992 134.316C20.8753 134.316 25.0721 136.076 28.1665 139.208C31.2608 142.339 32.9992 146.587 32.9992 151.016C32.9992 155.445 31.2608 159.693 28.1665 162.825C25.0721 165.957 20.8753 167.716 16.4992 167.716C12.1231 167.716 7.92629 165.957 4.83194 162.825C1.73759 159.693 -0.000793457 155.445 -0.000793457 151.016ZM-0.000793457 84.2163C-0.000793457 79.7872 1.73759 75.5395 4.83194 72.4076C7.92629 69.2758 12.1231 67.5163 16.4992 67.5163C20.8753 67.5163 25.0721 69.2758 28.1665 72.4076C31.2608 75.5395 32.9992 79.7872 32.9992 84.2163C32.9992 88.6454 31.2608 92.8931 28.1665 96.025C25.0721 99.1568 20.8753 100.916 16.4992 100.916C12.1231 100.916 7.92629 99.1568 4.83194 96.025C1.73759 92.8931 -0.000793457 88.6454 -0.000793457 84.2163ZM-0.000793457 17.4163C-0.000793457 12.9872 1.73759 8.73948 4.83194 5.60763C7.92629 2.47577 12.1231 0.716309 16.4992 0.716309C20.8753 0.716309 25.0721 2.47577 28.1665 5.60763C31.2608 8.73948 32.9992 12.9872 32.9992 17.4163C32.9992 21.8454 31.2608 26.0931 28.1665 29.225C25.0721 32.3568 20.8753 34.1163 16.4992 34.1163C12.1231 34.1163 7.92629 32.3568 4.83194 29.225C1.73759 26.0931 -0.000793457 21.8454 -0.000793457 17.4163Z" fill="#9D9D9D" style="fill:#9D9D9D;fill:color(display-p3 0.6157 0.6157 0.6157);fill-opacity:1;"/>
</svg>
