<svg width="21" height="21" viewBox="0 0 21 21" fill="none" xmlns="http://www.w3.org/2000/svg">
<path d="M9 1C9 0.447715 9.44772 0 10 0H11C11.5523 0 12 0.447715 12 1V20C12 20.5523 11.5523 21 11 21H10C9.44772 21 9 20.5523 9 20V1Z" fill="#F2F1F1" style="fill:#F2F1F1;fill:color(display-p3 0.9483 0.9451 0.9451);fill-opacity:1;"/>
<path d="M0 10C0 9.44772 0.447715 9 1 9H20C20.5523 9 21 9.44772 21 10V11C21 11.5523 20.5523 12 20 12H1C0.447715 12 0 11.5523 0 11V10Z" fill="#F2F1F1" style="fill:#F2F1F1;fill:color(display-p3 0.9483 0.9451 0.9451);fill-opacity:1;"/>
</svg>
