<svg width="224" height="253" viewBox="0 0 224 253" fill="none" xmlns="http://www.w3.org/2000/svg">
<path d="M26 253C20.4771 253 16 248.523 16 243V28.3963H8.02156C3.59137 28.3963 0 24.8049 0 20.3748V20.3748C0 15.9446 3.59137 12.3532 8.02156 12.3532H64V10C64 4.47715 68.4772 0 74 0H150C155.523 0 160 4.47715 160 10V12.3532H215.978C220.409 12.3532 224 15.9446 224 20.3748V20.3748C224 24.8049 220.409 28.3963 215.978 28.3963H208V243C208 248.523 203.523 253 198 253H26ZM32 236.957H192V28.3963H32V236.957ZM76.928 196.871C76.928 201.289 80.5097 204.871 84.928 204.871V204.871C89.3463 204.871 92.928 201.289 92.928 196.871V68.4826C92.928 64.0643 89.3463 60.4826 84.928 60.4826V60.4826C80.5097 60.4826 76.928 64.0643 76.928 68.4826V196.871ZM131.072 196.871C131.072 201.289 134.654 204.871 139.072 204.871V204.871C143.49 204.871 147.072 201.289 147.072 196.871V68.4826C147.072 64.0643 143.49 60.4826 139.072 60.4826V60.4826C134.654 60.4826 131.072 64.0643 131.072 68.4826V196.871Z" fill="#646464" style="fill:#646464;fill:color(display-p3 0.3908 0.3908 0.3908);fill-opacity:1;"/>
</svg>
