<svg width="277" height="277" viewBox="0 0 277 277" fill="none" xmlns="http://www.w3.org/2000/svg">
<path d="M131.813 24.3734H37.8473C30.727 24.3734 23.8982 27.202 18.8634 32.2368C13.8285 37.2717 11 44.1004 11 51.2207V239.152C11 246.272 13.8285 253.101 18.8634 258.136C23.8982 263.171 30.727 265.999 37.8473 265.999H225.778C232.899 265.999 239.728 263.171 244.762 258.136C249.797 253.101 252.626 246.272 252.626 239.152V145.186" stroke="#646464" style="stroke:#646464;stroke:color(display-p3 0.3908 0.3908 0.3908);stroke-opacity:1;" stroke-width="22" stroke-linecap="round" stroke-linejoin="round"/>
<path d="M217.389 19.3404C222.729 14.0001 229.972 11 237.524 11C245.076 11 252.319 14.0001 257.66 19.3404C263 24.6806 266 31.9236 266 39.4759C266 47.0281 263 54.2711 257.66 59.6113L131.813 185.458L78.1183 198.882L91.5419 145.187L217.389 19.3404Z" stroke="#646464" style="stroke:#646464;stroke:color(display-p3 0.3908 0.3908 0.3908);stroke-opacity:1;" stroke-width="22" stroke-linecap="round" stroke-linejoin="round"/>
</svg>
