<svg width="255" height="255" viewBox="0 0 255 255" fill="none" xmlns="http://www.w3.org/2000/svg">
<path d="M244.375 0H74.375C71.5571 0 68.8546 1.11942 66.862 3.11199C64.8694 5.10457 63.75 7.80707 63.75 10.625V63.75H10.625C7.80707 63.75 5.10457 64.8694 3.11199 66.862C1.11942 68.8546 0 71.5571 0 74.375V244.375C0 247.193 1.11942 249.895 3.11199 251.888C5.10457 253.881 7.80707 255 10.625 255H180.625C183.443 255 186.145 253.881 188.138 251.888C190.131 249.895 191.25 247.193 191.25 244.375V191.25H244.375C247.193 191.25 249.895 190.131 251.888 188.138C253.881 186.145 255 183.443 255 180.625V10.625C255 7.80707 253.881 5.10457 251.888 3.11199C249.895 1.11942 247.193 0 244.375 0ZM170 233.75H21.25V85H170V233.75ZM233.75 170H191.25V74.375C191.25 71.5571 190.131 68.8546 188.138 66.862C186.145 64.8694 183.443 63.75 180.625 63.75H85V21.25H233.75V170Z" fill="#646464" style="fill:#646464;fill:color(display-p3 0.3908 0.3908 0.3908);fill-opacity:1;"/>
</svg>
