<svg width="15" height="17" viewBox="0 0 15 17" fill="none" xmlns="http://www.w3.org/2000/svg">
<path d="M2.88216 16.9001C2.37418 16.9001 1.93946 16.7175 1.57802 16.3522C1.21658 15.987 1.03555 15.5474 1.03494 15.0334V2.90009C0.773252 2.90009 0.554049 2.8105 0.377331 2.63129C0.200614 2.4521 0.111947 2.23059 0.111331 1.96676C0.110716 1.70294 0.199382 1.48143 0.377331 1.30223C0.55528 1.12303 0.774483 1.03343 1.03494 1.03343H4.72938C4.72938 0.768986 4.81805 0.547476 4.99538 0.368898C5.17272 0.19032 5.39192 0.10072 5.65299 0.100098H9.34744C9.60909 0.100098 9.82862 0.189698 10.006 0.368898C10.1833 0.548097 10.2716 0.769609 10.271 1.03343H13.9655C14.2271 1.03343 14.4467 1.12303 14.624 1.30223C14.8013 1.48143 14.8897 1.70294 14.8891 1.96676C14.8884 2.23059 14.7998 2.45241 14.6231 2.63223C14.4463 2.81205 14.2271 2.90134 13.9655 2.90009V15.0334C13.9655 15.5468 13.7848 15.9863 13.4233 16.3522C13.0619 16.7181 12.6269 16.9007 12.1183 16.9001H2.88216ZM12.1183 2.90009H2.88216V15.0334H12.1183V2.90009ZM5.65299 13.1668C5.91468 13.1668 6.1342 13.0772 6.31153 12.898C6.48887 12.7187 6.57722 12.4972 6.57661 12.2334V5.7001C6.57661 5.43565 6.48794 5.21414 6.31061 5.03556C6.13327 4.85698 5.91407 4.76739 5.65299 4.76676C5.39192 4.76614 5.17272 4.85574 4.99538 5.03556C4.81805 5.21539 4.72938 5.43689 4.72938 5.7001V12.2334C4.72938 12.4979 4.81805 12.7197 4.99538 12.8989C5.17272 13.0781 5.39192 13.1674 5.65299 13.1668ZM9.34744 13.1668C9.60909 13.1668 9.82862 13.0772 10.006 12.898C10.1833 12.7187 10.2716 12.4972 10.271 12.2334V5.7001C10.271 5.43565 10.1824 5.21414 10.005 5.03556C9.82772 4.85698 9.60851 4.76739 9.34744 4.76676C9.08636 4.76614 8.86716 4.85574 8.68983 5.03556C8.51249 5.21539 8.42383 5.43689 8.42383 5.7001V12.2334C8.42383 12.4979 8.51249 12.7197 8.68983 12.8989C8.86716 13.0781 9.08636 13.1674 9.34744 13.1668Z" fill="#F93F3E" style="fill:#F93F3E;fill:color(display-p3 0.9765 0.2471 0.2431);fill-opacity:1;"/>
</svg>
