<svg width="15" height="18" viewBox="0 0 15 18" fill="none" xmlns="http://www.w3.org/2000/svg">
<path d="M1.906 1.0839C1.81491 1.02989 1.71114 1.00095 1.60524 1.00002C1.49934 0.999098 1.39508 1.02622 1.30306 1.07863C1.21104 1.13104 1.13452 1.20687 1.0813 1.29843C1.02807 1.38998 1.00002 1.49399 1 1.5999V15.4939C1.00002 15.5998 1.02807 15.7038 1.0813 15.7954C1.13452 15.8869 1.21104 15.9627 1.30306 16.0152C1.39508 16.0676 1.49934 16.0947 1.60524 16.0938C1.71114 16.0928 1.81491 16.0639 1.906 16.0099L13.629 9.06289C13.7185 9.00977 13.7927 8.93426 13.8442 8.84379C13.8957 8.75332 13.9228 8.651 13.9228 8.5469C13.9228 8.44279 13.8957 8.34047 13.8442 8.25C13.7927 8.15953 13.7185 8.08402 13.629 8.0309L1.906 1.0839Z" stroke="white" style="stroke:white;stroke-opacity:1;" stroke-width="2" stroke-linecap="round" stroke-linejoin="round"/>
</svg>
