<svg width="255" height="254" viewBox="0 0 255 254" fill="none" xmlns="http://www.w3.org/2000/svg">
<path d="M18.1887 163.261L5.31111 150.461L0 155.776V163.261H18.1887ZM163.699 18.6328L176.576 5.83321C174.887 4.14962 172.88 2.81388 170.67 1.90249C168.46 0.991096 166.091 0.521973 163.699 0.521973C161.306 0.521973 158.937 0.991096 156.728 1.90249C154.518 2.81388 152.511 4.14962 150.821 5.83321L163.699 18.6328ZM236.454 90.9468L249.331 103.746C251.025 102.067 252.369 100.072 253.286 97.8757C254.203 95.6794 254.675 93.3248 254.675 90.9468C254.675 88.5689 254.203 86.2143 253.286 84.0179C252.369 81.8216 251.025 79.8266 249.331 78.1473L236.454 90.9468ZM90.9437 235.575V253.653H98.4738L103.821 248.375L90.9437 235.575ZM18.1887 235.575H0C0 240.37 1.91631 244.968 5.32736 248.358C8.73841 251.749 13.3648 253.653 18.1887 253.653V235.575ZM31.0664 176.06L176.576 31.4324L150.821 5.83321L5.31111 150.461L31.0664 176.06ZM150.821 31.4324L223.576 103.746L249.331 78.1473L176.576 5.83321L150.821 31.4324ZM223.576 78.1473L78.0661 222.775L103.821 248.375L249.331 103.746L223.576 78.1473ZM90.9437 217.496H18.1887V253.653H90.9437V217.496ZM36.3775 235.575V163.261H0V235.575H36.3775Z" fill="#3E3E3F" style="fill:#3E3E3F;fill:color(display-p3 0.2431 0.2431 0.2471);fill-opacity:1;"/>
</svg>
