<svg width="46" height="28" viewBox="0 0 46 28" fill="none" xmlns="http://www.w3.org/2000/svg">
<rect x="2" width="44" height="24" rx="12" fill="#D9D9D9" style="fill:#D9D9D9;fill:color(display-p3 0.8510 0.8510 0.8510);fill-opacity:1;"/>
<g filter="url(#filter0_d_282_5314)">
<rect x="4" y="2" width="20" height="20" rx="10" fill="#3E3E3F" style="fill:#3E3E3F;fill:color(display-p3 0.2431 0.2431 0.2471);fill-opacity:1;"/>
</g>
<path d="M16.6723 5.43064C16.8088 5.29411 16.9708 5.18581 17.1492 5.11192C17.3276 5.03803 17.5187 5 17.7118 5C17.9048 5 18.096 5.03803 18.2744 5.11192C18.4527 5.18581 18.6148 5.29411 18.7513 5.43064L20.5693 7.24924C20.7059 7.38572 20.8142 7.54775 20.8881 7.72608C20.962 7.90442 21 8.09557 21 8.2886C21 8.48164 20.962 8.67279 20.8881 8.85113C20.8142 9.02946 20.7059 9.19149 20.5693 9.32797L18.8424 11.0547L17.2242 12.6727L16.1844 11.6337L17.2837 10.5345L15.4649 8.71662L14.3663 9.81513L13.3265 8.77614L14.9454 7.1574L16.6723 5.43064ZM16.5048 7.67689L18.3228 9.4955L19.5302 8.28824L17.7114 6.47037L16.5048 7.67689ZM8.0391 5.16538L20.8361 17.961L19.797 19L15.3466 14.5501L12.2812 17.6152C11.9874 17.909 11.6094 18.1039 11.1997 18.173L8.52748 18.6237C7.8492 18.738 7.26064 18.1494 7.37515 17.4711L7.82623 14.7993C7.89539 14.3896 8.0904 14.0117 8.38418 13.7179L11.4489 10.6535L7 6.20437L8.0391 5.16538ZM12.4887 11.6925L9.30307 14.8771L8.93343 17.0646L11.1211 16.6957L14.3068 13.5111L12.4887 11.6925Z" fill="white" style="fill:white;fill-opacity:1;"/>
<defs>
<filter id="filter0_d_282_5314" x="0" y="0" width="28" height="28" filterUnits="userSpaceOnUse" color-interpolation-filters="sRGB">
<feFlood flood-opacity="0" result="BackgroundImageFix"/>
<feColorMatrix in="SourceAlpha" type="matrix" values="0 0 0 0 0 0 0 0 0 0 0 0 0 0 0 0 0 0 127 0" result="hardAlpha"/>
<feOffset dy="2"/>
<feGaussianBlur stdDeviation="2"/>
<feComposite in2="hardAlpha" operator="out"/>
<feColorMatrix type="matrix" values="0 0 0 0 0.152941 0 0 0 0 0.152941 0 0 0 0 0.152941 0 0 0 0.1 0"/>
<feBlend mode="normal" in2="BackgroundImageFix" result="effect1_dropShadow_282_5314"/>
<feBlend mode="normal" in="SourceGraphic" in2="effect1_dropShadow_282_5314" result="shape"/>
</filter>
</defs>
</svg>
