<svg width="53" height="257" viewBox="0 0 53 257" fill="none" xmlns="http://www.w3.org/2000/svg">
<path d="M8.133 212.223C3.34125 217.071 0.65 223.645 0.65 230.5C0.65 237.355 3.34125 243.929 8.133 248.777C12.9249 253.626 19.425 256.35 26.2035 256.35C32.982 256.35 39.4821 253.626 44.274 248.777C49.0657 243.929 51.757 237.355 51.757 230.5C51.757 223.645 49.0657 217.071 44.274 212.223C39.4821 207.374 32.982 204.65 26.2035 204.65C19.425 204.65 12.9249 207.374 8.133 212.223ZM8.133 110.223C3.34125 115.071 0.65 121.645 0.65 128.5C0.65 135.355 3.34125 141.929 8.133 146.777C12.9249 151.626 19.425 154.35 26.2035 154.35C32.982 154.35 39.4821 151.626 44.274 146.777C49.0657 141.929 51.757 135.355 51.757 128.5C51.757 121.645 49.0657 115.071 44.274 110.223C39.4821 105.374 32.982 102.65 26.2035 102.65C19.425 102.65 12.9249 105.374 8.133 110.223ZM8.133 8.22274C3.34125 13.0709 0.65 19.6455 0.65 26.5C0.65 33.3545 3.34125 39.9291 8.133 44.7773C12.9249 49.6255 19.425 52.35 26.2035 52.35C32.982 52.35 39.4821 49.6255 44.274 44.7773C49.0657 39.9291 51.757 33.3545 51.757 26.5C51.757 19.6455 49.0657 13.0709 44.274 8.22274C39.4821 3.37448 32.982 0.65 26.2035 0.65C19.425 0.65 12.9249 3.37448 8.133 8.22274Z" fill="white" stroke="white" style="fill:white;fill-opacity:1;stroke:white;stroke-opacity:1;" stroke-width="0.7"/>
</svg>
