<svg width="253" height="253" viewBox="0 0 253 253" fill="none" xmlns="http://www.w3.org/2000/svg">
<path d="M114.705 203.257C115.924 204.666 116.892 206.34 117.552 208.183C118.213 210.027 118.552 212.003 118.552 213.999C118.552 215.995 118.213 217.971 117.552 219.814C116.892 221.657 115.924 223.331 114.705 224.74L109.123 231.21C103.198 238.104 96.1532 243.568 88.3952 247.286C80.6373 251.003 72.3205 252.901 63.9258 252.87C51.2838 252.875 38.9245 248.533 28.4118 240.393C17.899 232.254 9.70504 220.683 4.86658 207.144C0.0281243 193.605 -1.23743 178.706 1.23003 164.333C3.69749 149.961 9.78709 136.759 18.7284 126.399L56.611 82.4853C64.6686 73.1462 74.7332 66.4734 85.7627 63.1577C96.7922 59.8419 108.386 60.0038 119.343 63.6265C130.301 67.2491 140.224 74.201 148.085 83.7623C155.946 93.3235 161.46 105.147 164.056 118.008C164.486 119.963 164.574 121.999 164.317 123.995C164.06 125.99 163.461 127.907 162.557 129.631C161.653 131.355 160.46 132.853 159.05 134.036C157.64 135.219 156.04 136.065 154.345 136.522C152.649 136.98 150.892 137.04 149.176 136.7C147.46 136.361 145.82 135.627 144.352 134.543C142.883 133.459 141.616 132.046 140.625 130.387C139.634 128.729 138.938 126.857 138.579 124.882C137.039 117.291 133.777 110.313 129.132 104.672C124.486 99.0305 118.625 94.9298 112.154 92.7937C105.684 90.6576 98.8384 90.5637 92.3259 92.5215C85.8134 94.4794 79.8702 98.418 75.1107 103.93L37.2282 147.844C31.9476 153.96 28.3503 161.754 26.8912 170.241C25.4322 178.727 26.1768 187.524 29.0311 195.52C31.8853 203.516 36.721 210.351 42.9264 215.16C49.1318 219.97 56.4283 222.539 63.8931 222.541C68.853 222.558 73.7664 221.433 78.3491 219.234C82.9317 217.034 87.0925 213.803 90.5908 209.727L96.1614 203.257C97.377 201.842 98.8218 200.718 100.413 199.952C102.004 199.185 103.71 198.791 105.433 198.791C107.156 198.791 108.862 199.185 110.453 199.952C112.044 200.718 113.489 201.842 114.705 203.257ZM234.239 21.8277C222.249 7.93346 205.99 0.128174 189.036 0.128174C172.083 0.128174 155.823 7.93346 143.834 21.8277L138.263 28.2852C135.805 31.134 134.425 34.9978 134.425 39.0266C134.425 43.0555 135.805 46.9193 138.263 49.7681C140.72 52.6169 144.054 54.2173 147.529 54.2173C151.005 54.2173 154.338 52.6169 156.795 49.7681L162.377 43.2979C169.46 35.0867 179.068 30.4736 189.085 30.4736C199.103 30.4736 208.71 35.0867 215.794 43.2979C222.878 51.5092 226.857 62.6461 226.857 74.2586C226.857 85.8711 222.878 97.008 215.794 105.219L177.846 149.07C174.348 153.147 170.188 156.379 165.605 158.578C161.022 160.778 156.108 161.901 151.148 161.884C142.64 161.877 134.383 158.538 127.716 152.409C121.05 146.28 116.365 137.72 114.421 128.118C113.635 124.2 111.538 120.804 108.592 118.678C105.646 116.553 102.092 115.871 98.7124 116.782C95.3325 117.694 92.4035 120.124 90.5696 123.539C88.7358 126.955 88.1474 131.074 88.9338 134.992C92.2163 151.254 100.142 165.754 111.425 176.141C122.707 186.527 136.686 192.19 151.094 192.212H151.148C159.547 192.239 167.867 190.335 175.627 186.611C183.387 182.887 190.432 177.416 196.357 170.515L234.239 126.601C240.175 119.722 244.883 111.555 248.096 102.566C251.308 93.5779 252.961 83.9438 252.961 74.2144C252.961 64.485 251.308 54.8509 248.096 45.8623C244.883 36.8737 240.175 28.7067 234.239 21.8277Z" fill="#0047FF" style="fill:#0047FF;fill:color(display-p3 0.0000 0.2800 1.0000);fill-opacity:1;"/>
</svg>
