<svg width="20" height="17" viewBox="0 0 20 17" fill="none" xmlns="http://www.w3.org/2000/svg">
<path d="M4.58333 4.83341C4.58333 4.50511 4.648 4.18002 4.77363 3.87671C4.89927 3.57339 5.08342 3.29779 5.31557 3.06565C5.54771 2.8335 5.82331 2.64935 6.12662 2.52372C6.42994 2.39808 6.75503 2.33341 7.08333 2.33341C7.41164 2.33341 7.73673 2.39808 8.04004 2.52372C8.34336 2.64935 8.61895 2.8335 8.8511 3.06565C9.08325 3.29779 9.2674 3.57339 9.39303 3.87671C9.51867 4.18002 9.58333 4.50511 9.58333 4.83341C9.58333 5.49646 9.31994 6.13234 8.8511 6.60118C8.38226 7.07002 7.74637 7.33341 7.08333 7.33341C6.42029 7.33341 5.78441 7.07002 5.31557 6.60118C4.84673 6.13234 4.58333 5.49646 4.58333 4.83341ZM7.08333 0.666748C5.97826 0.666748 4.91846 1.10573 4.13705 1.88714C3.35565 2.66854 2.91667 3.72835 2.91667 4.83341C2.91667 5.93848 3.35565 6.99829 4.13705 7.77969C4.91846 8.56109 5.97826 9.00008 7.08333 9.00008C8.1884 9.00008 9.24821 8.56109 10.0296 7.77969C10.811 6.99829 11.25 5.93848 11.25 4.83341C11.25 3.72835 10.811 2.66854 10.0296 1.88714C9.24821 1.10573 8.1884 0.666748 7.08333 0.666748ZM12.9167 0.666748H12.0833V2.33341H12.9167C13.245 2.33341 13.5701 2.39808 13.8734 2.52372C14.1767 2.64935 14.4523 2.8335 14.6844 3.06565C14.9166 3.29779 15.1007 3.57339 15.2264 3.87671C15.352 4.18002 15.4167 4.50511 15.4167 4.83341C15.4167 5.16172 15.352 5.48681 15.2264 5.79012C15.1007 6.09344 14.9166 6.36904 14.6844 6.60118C14.4523 6.83333 14.1767 7.01748 13.8734 7.14311C13.5701 7.26875 13.245 7.33341 12.9167 7.33341H12.0833V9.00008H12.9167C14.0217 9.00008 15.0815 8.56109 15.8629 7.77969C16.6443 6.99829 17.0833 5.93848 17.0833 4.83341C17.0833 3.72835 16.6443 2.66854 15.8629 1.88714C15.0815 1.10573 14.0217 0.666748 12.9167 0.666748ZM0 14.8334C0 13.7283 0.438987 12.6685 1.22039 11.8871C2.00179 11.1057 3.0616 10.6667 4.16667 10.6667H10C11.1051 10.6667 12.1649 11.1057 12.9463 11.8871C13.7277 12.6685 14.1667 13.7283 14.1667 14.8334V16.5001H12.5V14.8334C12.5 14.1704 12.2366 13.5345 11.7678 13.0656C11.2989 12.5968 10.663 12.3334 10 12.3334H4.16667C3.50363 12.3334 2.86774 12.5968 2.3989 13.0656C1.93006 13.5345 1.66667 14.1704 1.66667 14.8334V16.5001H0V15.6667V14.8334ZM20 14.8334C20 14.2862 19.8922 13.7444 19.6828 13.2389C19.4734 12.7334 19.1665 12.274 18.7796 11.8871C18.3927 11.5002 17.9334 11.1933 17.4278 10.9839C16.9223 10.7745 16.3805 10.6667 15.8333 10.6667H15V12.3334H15.8333C16.4964 12.3334 17.1323 12.5968 17.6011 13.0656C18.0699 13.5345 18.3333 14.1704 18.3333 14.8334V16.5001H20V15.6667V14.8334Z" fill="white" style="fill:white;fill-opacity:1;"/>
</svg>
