<svg width="275" height="245" viewBox="0 0 275 245" fill="none" xmlns="http://www.w3.org/2000/svg">
<path d="M192.376 16.25C198.976 20.1389 204.436 25.6366 208.225 32.2081C212.015 38.7796 214.004 46.201 214 53.75C214.004 61.299 212.015 68.7204 208.225 75.2919C204.436 81.8634 198.976 87.3611 192.376 91.25M265 235V227.5C265 199.5 265 185.5 259.441 174.8C254.552 165.392 246.75 157.744 237.154 152.95M105.625 97.5C111.485 97.5 117.288 96.3684 122.702 94.1697C128.116 91.9711 133.036 88.7485 137.18 84.6859C141.323 80.6234 144.611 75.8004 146.853 70.4924C149.096 65.1844 150.25 59.4953 150.25 53.75C150.25 48.0047 149.096 42.3156 146.853 37.0076C144.611 31.6996 141.323 26.8766 137.18 22.8141C133.036 18.7515 128.116 15.5289 122.702 13.3303C117.288 11.1316 111.485 10 105.625 10C93.7897 10 82.4392 14.6094 74.0704 22.8141C65.7016 31.0188 61 42.1468 61 53.75C61 65.3532 65.7016 76.4812 74.0704 84.6859C82.4392 92.8906 93.7897 97.5 105.625 97.5ZM10 227.5V235H201.25V227.5C201.25 199.5 201.25 185.5 195.691 174.8C190.802 165.392 183 157.744 173.404 152.95C162.49 147.5 148.21 147.5 119.65 147.5H91.6C63.04 147.5 48.76 147.5 37.846 152.95C28.2502 157.744 20.4485 165.392 15.559 174.8C10 185.5 10 199.5 10 227.5Z" stroke="white" style="stroke:white;stroke-opacity:1;" stroke-width="20" stroke-linecap="round" stroke-linejoin="round"/>
</svg>
