<svg width="242" height="255" viewBox="0 0 242 255" fill="none" xmlns="http://www.w3.org/2000/svg">
<path d="M231.013 0H70.3082C67.6443 0 65.0896 1.11942 63.206 3.11199C61.3223 5.10457 60.2641 7.80707 60.2641 10.625V63.75H10.044C7.38018 63.75 4.82545 64.8694 2.94183 66.862C1.05821 68.8546 0 71.5571 0 74.375V244.375C0 247.193 1.05821 249.895 2.94183 251.888C4.82545 253.881 7.38018 255 10.044 255H170.748C173.412 255 175.967 253.881 177.851 251.888C179.734 249.895 180.792 247.193 180.792 244.375V191.25H231.013C233.676 191.25 236.231 190.131 238.115 188.138C239.998 186.145 241.057 183.443 241.057 180.625V10.625C241.057 7.80707 239.998 5.10457 238.115 3.11199C236.231 1.11942 233.676 0 231.013 0ZM160.704 233.75H20.088V85H160.704V233.75ZM220.968 170H180.792V74.375C180.792 71.5571 179.734 68.8546 177.851 66.862C175.967 64.8694 173.412 63.75 170.748 63.75H80.3522V21.25H220.968V170Z" fill="#9D9D9D" style="fill:#9D9D9D;fill:color(display-p3 0.6157 0.6157 0.6157);fill-opacity:1;"/>
</svg>
