<svg width="221" height="221" viewBox="0 0 221 221" fill="none" xmlns="http://www.w3.org/2000/svg">
<path d="M131.229 41.4503L158.929 13.7507C161.194 11.4861 164.266 10.2139 167.469 10.2139C170.672 10.2139 173.744 11.4861 176.01 13.7507L207.249 44.9898C209.513 47.2551 210.786 50.3271 210.786 53.5303C210.786 56.7335 209.513 59.8056 207.249 62.0709L179.549 89.7705M131.229 41.4503L13.968 158.711C11.7024 160.976 10.4293 164.048 10.4286 167.252V198.491C10.4286 201.695 11.7013 204.767 13.9667 207.033C16.2322 209.298 19.3048 210.571 22.5086 210.571H53.7476C56.9512 210.57 60.0233 209.297 62.2882 207.032L179.549 89.7705M131.229 41.4503L179.549 89.7705" stroke="#404040" style="stroke:#404040;stroke:color(display-p3 0.2500 0.2500 0.2500);stroke-opacity:1;" stroke-width="20" stroke-linecap="round" stroke-linejoin="round"/>
</svg>
