<svg width="135" height="208" viewBox="0 0 135 208" fill="none" xmlns="http://www.w3.org/2000/svg">
<path d="M18.25 189.729V18.2715L116.223 104L18.25 189.729ZM30.0296 203.188L127.985 117.46C129.905 115.782 131.443 113.713 132.498 111.391C133.552 109.07 134.098 106.55 134.098 104C134.098 101.45 133.552 98.9301 132.498 96.6085C131.443 94.287 129.905 92.2179 127.985 90.5401L30.0475 4.81164C18.4466 -5.30561 0.375007 2.91689 0.375007 18.2715V189.729C0.37206 193.165 1.3597 196.529 3.21964 199.419C5.07959 202.308 7.73301 204.6 10.8621 206.021C13.9913 207.441 17.4635 207.929 20.8629 207.427C24.2624 206.925 27.445 205.453 30.0296 203.188Z" fill="#F8F8F8" style="fill:#F8F8F8;fill:color(display-p3 0.9725 0.9725 0.9725);fill-opacity:1;"/>
</svg>
