<svg width="276" height="255" viewBox="0 0 276 255" fill="none" xmlns="http://www.w3.org/2000/svg">
<g opacity="0.8">
<path d="M120.495 17.2135C120.495 7.70676 128.202 0 137.709 0V0C147.216 0 154.922 7.70677 154.922 17.2135V237.786C154.922 247.293 147.216 255 137.709 255V255C128.202 255 120.495 247.293 120.495 237.786V17.2135Z" fill="#404040" style="fill:#404040;fill:color(display-p3 0.2500 0.2500 0.2500);fill-opacity:1;"/>
<path d="M0 127.5C0 118.698 7.13546 111.562 15.9375 111.562H259.479C268.281 111.562 275.417 118.698 275.417 127.5V127.5C275.417 136.302 268.281 143.438 259.479 143.438H15.9375C7.13545 143.438 0 136.302 0 127.5V127.5Z" fill="#404040" style="fill:#404040;fill:color(display-p3 0.2500 0.2500 0.2500);fill-opacity:1;"/>
</g>
</svg>
