<svg width="275" height="275" viewBox="0 0 275 275" fill="none" xmlns="http://www.w3.org/2000/svg">
<path d="M163.746 49.7555L199 14.5015C201.883 11.6192 205.793 10 209.87 10C213.947 10 217.857 11.6192 220.74 14.5015L260.499 54.2602C263.381 57.1434 265 61.0533 265 65.1301C265 69.2069 263.381 73.1167 260.499 75.9999L225.245 111.254M163.746 49.7555L14.5048 198.997C11.6213 201.879 10.0009 205.789 10 209.867V249.625C10 253.703 11.6198 257.614 14.5031 260.497C17.3864 263.38 21.297 265 25.3746 265H65.1334C69.2106 264.999 73.1206 263.379 76.0032 260.495L225.245 111.254M163.746 49.7555L225.245 111.254" stroke="#9D9D9D" style="stroke:#9D9D9D;stroke:color(display-p3 0.6157 0.6157 0.6157);stroke-opacity:1;" stroke-width="20" stroke-linecap="round" stroke-linejoin="round"/>
</svg>
