<svg width="255" height="255" viewBox="0 0 255 255" fill="none" xmlns="http://www.w3.org/2000/svg">
<g opacity="0.9">
<path d="M212.534 14.1884C220.346 6.37986 233.031 6.4048 240.84 14.2173V14.2173C248.648 22.0297 248.667 34.7148 240.854 42.5233L42.4663 240.81C34.6538 248.619 21.9688 248.594 14.1603 240.781V240.781C6.3518 232.969 6.3333 220.284 14.1458 212.475L212.534 14.1884Z" fill="#F93F3E" style="fill:#F93F3E;fill:color(display-p3 0.9765 0.2471 0.2431);fill-opacity:1;"/>
<path d="M14.221 14.1603C22.0334 6.35176 34.7185 6.33326 42.527 14.1457L240.814 212.534C248.622 220.346 248.597 233.031 240.785 240.84V240.84C232.973 248.648 220.288 248.667 212.479 240.854L14.192 42.4663C6.38354 34.6538 6.40848 21.9688 14.221 14.1603V14.1603Z" fill="#F93F3E" style="fill:#F93F3E;fill:color(display-p3 0.9765 0.2471 0.2431);fill-opacity:1;"/>
</g>
</svg>
