<svg width="242" height="242" viewBox="0 0 242 242" fill="none" xmlns="http://www.w3.org/2000/svg">
<path d="M0.25 37.1458C0.25 27.3605 4.13723 17.9759 11.0565 11.0565C17.9759 4.13723 27.3605 0.25 37.1458 0.25H170.843C182.407 0.250691 193.498 4.84514 201.674 13.0227L228.977 40.3256C237.162 48.5098 241.75 59.6053 241.75 71.1705V204.854C241.75 214.64 237.863 224.024 230.943 230.943C224.024 237.863 214.64 241.75 204.854 241.75H37.1458C27.3605 241.75 17.9759 237.863 11.0565 230.943C4.13723 224.024 0.25 214.64 0.25 204.854V37.1458ZM37.1458 20.375C27.8883 20.375 20.375 27.8883 20.375 37.1458V204.854C20.375 214.112 27.8883 221.625 37.1458 221.625H40.5V151.188C40.5 143.181 43.6805 135.503 49.3417 129.842C55.003 124.18 62.6813 121 70.6875 121H171.312C179.319 121 186.997 124.18 192.658 129.842C198.32 135.503 201.5 143.181 201.5 151.188V221.625H204.854C214.112 221.625 221.625 214.112 221.625 204.854V71.1705C221.625 64.9318 219.156 58.9613 214.742 54.5607L187.439 27.2578C183.973 23.7857 179.507 21.4867 174.667 20.6836V57.2708C174.667 61.2351 173.886 65.1606 172.369 68.8231C170.852 72.4856 168.628 75.8134 165.825 78.6166C163.022 81.4198 159.694 83.6434 156.031 85.1604C152.369 86.6775 148.443 87.4583 144.479 87.4583H84.1042C76.0979 87.4583 68.4196 84.2779 62.7584 78.6166C57.0971 72.9554 53.9167 65.2771 53.9167 57.2708V20.375H37.1458ZM181.375 221.625V151.188C181.375 148.519 180.315 145.959 178.428 144.072C176.541 142.185 173.981 141.125 171.312 141.125H70.6875C68.0188 141.125 65.4593 142.185 63.5722 144.072C61.6852 145.959 60.625 148.519 60.625 151.188V221.625H181.375ZM74.0417 20.375V57.2708C74.0417 62.8253 78.5497 67.3333 84.1042 67.3333H144.479C147.148 67.3333 149.707 66.2732 151.594 64.3861C153.482 62.499 154.542 59.9396 154.542 57.2708V20.375H74.0417Z" fill="#9D9D9D" style="fill:#9D9D9D;fill:color(display-p3 0.6157 0.6157 0.6157);fill-opacity:1;"/>
</svg>
