<svg width="21" height="18" viewBox="0 0 21 18" fill="none" xmlns="http://www.w3.org/2000/svg">
<path d="M11.864 1.11419C11.8454 0.780524 12.098 0.493699 12.4313 0.46989L12.7497 0.447147C12.7942 0.443975 12.8387 0.443975 12.8831 0.447147L13.1702 0.467648C13.5263 0.49309 13.8023 0.789479 13.8023 1.14658C13.8023 1.46851 13.4998 1.70472 13.1875 1.62665L13.0953 1.6036C13.0047 1.58095 12.9099 1.58095 12.8193 1.6036L12.6756 1.63952L12.3939 1.70994C12.1288 1.74781 11.8882 1.55054 11.8734 1.28318L11.864 1.11419Z" fill="#FEDBAB" style="fill:#FEDBAB;fill:color(display-p3 0.9961 0.8588 0.6706);fill-opacity:1;"/>
<path d="M10.3957 2.10075C10.1339 1.64472 11.354 2.16897 11.7544 0.909928C11.8567 0.588 12.2427 0.393906 12.517 0.591146C12.6267 0.670095 12.6921 0.79678 12.6929 0.931994L12.6952 1.32808C12.6966 1.57674 12.621 1.82018 12.478 2.02357C12.3804 2.16235 12.2879 2.29255 12.1999 2.41292C11.6834 3.11972 10.8753 2.91804 10.432 2.16315C10.4197 2.14213 10.4076 2.12131 10.3957 2.10075Z" fill="#FEDBAB" style="fill:#FEDBAB;fill:color(display-p3 0.9961 0.8588 0.6706);fill-opacity:1;"/>
<path d="M2.53516 4.45653C2.53516 4.10651 2.81891 3.82275 3.16893 3.82275H8.66168C9.0117 3.82275 9.29546 4.10651 9.29546 4.45653C9.29546 4.80656 9.0117 5.09031 8.66168 5.09031H3.16893C2.81891 5.09031 2.53516 4.80656 2.53516 4.45653Z" fill="#FEDBAB" style="fill:#FEDBAB;fill:color(display-p3 0.9961 0.8588 0.6706);fill-opacity:1;"/>
<path d="M5.35205 2.20311C5.35205 1.85309 5.6358 1.56934 5.98583 1.56934H11.4786C11.8286 1.56934 12.1124 1.85309 12.1124 2.20311C12.1124 2.55314 11.8286 2.83689 11.4786 2.83689H5.98583C5.6358 2.83689 5.35205 2.55314 5.35205 2.20311Z" fill="#FEDBAB" style="fill:#FEDBAB;fill:color(display-p3 0.9961 0.8588 0.6706);fill-opacity:1;"/>
<path d="M12.8378 4.42337C12.8484 4.09166 13.1258 3.83134 13.4576 3.84192L15.2738 3.89989C15.6055 3.91047 15.8658 4.18796 15.8553 4.51967C15.8447 4.85139 15.5672 5.11171 15.2355 5.10112L13.4192 5.04316C13.0875 5.03257 12.8272 4.75508 12.8378 4.42337Z" fill="#FEDBAB" style="fill:#FEDBAB;fill:color(display-p3 0.9961 0.8588 0.6706);fill-opacity:1;"/>
<path d="M2.79849 8.2188C2.64152 8.31445 2.44473 8.33094 2.28749 8.23573C0.73595 7.29625 0.623414 4.71244 2.82757 3.89036C2.9588 3.84141 3.09947 3.82242 3.23954 3.82242C3.36047 3.82242 3.46273 3.91194 3.47872 4.03182L3.52169 4.35409C3.56186 4.6554 3.36514 4.93256 3.11874 5.11058C2.53725 5.5307 2.21461 6.36028 2.89292 7.18966C3.15105 7.50528 3.14667 8.00664 2.79849 8.2188Z" fill="#FEDBAB" style="fill:#FEDBAB;fill:color(display-p3 0.9961 0.8588 0.6706);fill-opacity:1;"/>
<path d="M4.09381 4.61769C3.77429 4.60629 3.51519 4.34121 3.58102 4.02835C3.82866 2.8513 4.79673 1.92052 5.57642 1.64903C5.70909 1.60283 5.85025 1.5925 5.99073 1.5925C6.12409 1.59249 6.25005 1.6538 6.33232 1.75876L6.37632 1.81489C6.62862 2.13676 6.47346 2.60131 6.09713 2.7614C5.73824 2.91408 5.38088 3.12312 5.19966 3.40761C4.91803 3.84974 4.61769 4.63639 4.09381 4.61769Z" fill="#FEDBAB" style="fill:#FEDBAB;fill:color(display-p3 0.9961 0.8588 0.6706);fill-opacity:1;"/>
<path d="M15.2012 3.90745C15.2542 3.8978 15.3089 3.89512 15.3624 3.90219C17.2542 4.15229 18.2235 6.67915 16.298 8.17592C16.1874 8.2619 16.0592 8.32271 15.9259 8.3657C15.8107 8.40284 15.6857 8.34922 15.6333 8.24013L15.5126 7.98929C15.3802 7.7138 15.5008 7.38775 15.7228 7.17768C16.3879 6.5485 16.5274 5.48982 14.9995 5.01967C14.4064 4.90106 14.4139 4.0506 15.0089 3.94241L15.2012 3.90745Z" fill="#FEDBAB" style="fill:#FEDBAB;fill:color(display-p3 0.9961 0.8588 0.6706);fill-opacity:1;"/>
<path d="M12.9263 0.787216C12.961 0.59495 13.1359 0.456043 13.3269 0.497322C15.0845 0.877247 16.0758 3.21762 14.0677 4.69801C13.9549 4.7812 13.8258 4.84108 13.6924 4.8841C13.5653 4.92507 13.4265 4.90607 13.3151 4.83246L13.098 4.68902C12.9036 4.5606 12.8504 4.29883 12.9791 4.10466C13.0195 4.04375 13.0759 3.99578 13.1375 3.95645C13.9163 3.45927 14.247 1.94039 12.8411 1.48701C12.6651 1.43024 12.6228 1.1001 12.797 1.03789C12.8525 1.01805 12.8932 0.970029 12.9037 0.911974L12.9263 0.787216Z" fill="#FEDBAB" style="fill:#FEDBAB;fill:color(display-p3 0.9961 0.8588 0.6706);fill-opacity:1;"/>
<path d="M1.50941 7.6564C1.89719 7.5006 2.32511 7.76298 2.36075 8.17937C2.68317 11.9461 2.72722 12.9719 5.7823 16.5872C5.98282 16.8245 5.89585 17.1915 5.60757 17.3073C5.25214 17.4501 4.84339 17.3632 4.58423 17.0811C2.05778 14.3314 1.23562 12.1892 1.12102 8.24537C1.11352 7.98713 1.26969 7.75271 1.50941 7.6564Z" fill="#CAE8F9" style="fill:#CAE8F9;fill:color(display-p3 0.7922 0.9098 0.9765);fill-opacity:1;"/>
<path d="M13.0297 17.3694C12.6426 17.2118 12.5174 16.7258 12.7812 16.4016C15.1677 13.4696 15.8491 12.7016 16.1659 7.97887C16.1867 7.66889 16.5043 7.46551 16.792 7.58264C17.1468 7.72704 17.3802 8.07368 17.3705 8.4566C17.2754 12.1895 16.3773 14.3011 13.7183 17.216C13.5442 17.4068 13.269 17.4668 13.0297 17.3694Z" fill="#CAE8F9" style="fill:#CAE8F9;fill:color(display-p3 0.7922 0.9098 0.9765);fill-opacity:1;"/>
<path d="M14.9794 14.9371C15.0358 14.6684 15.2669 14.4762 15.5363 14.4231C18.4177 13.8553 20.846 9.66247 17.3167 9.80653C17.117 9.81468 16.9204 9.72799 16.8073 9.56323C16.6645 9.35508 16.6833 9.07608 16.8527 8.88895L16.9172 8.81773C17.0451 8.67644 17.2275 8.59667 17.4181 8.59859L17.9599 8.60404C22.6405 8.65107 19.3791 15.8153 15.4401 15.5984C15.1132 15.5804 14.9121 15.2576 14.9794 14.9371Z" fill="#CAE8F9" style="fill:#CAE8F9;fill:color(display-p3 0.7922 0.9098 0.9765);fill-opacity:1;"/>
<path d="M1.1265 8.23925C1.1265 7.88922 1.41026 7.60547 1.76028 7.60547H16.6893C17.0393 7.60547 17.323 7.88922 17.323 8.23925C17.323 8.58927 17.0393 8.87302 16.6893 8.87302H1.76028C1.41026 8.87302 1.1265 8.58927 1.1265 8.23925Z" fill="#CAE8F9" style="fill:#CAE8F9;fill:color(display-p3 0.7922 0.9098 0.9765);fill-opacity:1;"/>
<path d="M1.12646 17.0417C1.12646 16.6917 1.41022 16.4079 1.76024 16.4079H16.6892C17.0393 16.4079 17.323 16.6917 17.323 17.0417C17.323 17.3917 17.0393 17.6755 16.6892 17.6755H1.76024C1.41022 17.6755 1.12646 17.3917 1.12646 17.0417Z" fill="#528EB0" style="fill:#528EB0;fill:color(display-p3 0.3223 0.5574 0.6906);fill-opacity:1;"/>
</svg>
