<svg width="227" height="222" viewBox="0 0 227 222" fill="none" xmlns="http://www.w3.org/2000/svg">
<rect width="227" height="222" rx="111" fill="#3E3E3F" style="fill:#3E3E3F;fill:color(display-p3 0.2431 0.2431 0.2471);fill-opacity:1;"/>
<path d="M103.245 51.9932C103.245 46.4703 107.722 41.9932 113.245 41.9932H115.746C121.269 41.9932 125.746 46.4703 125.746 51.9932V166.998C125.746 172.521 121.269 176.998 115.746 176.998H113.245C107.722 176.998 103.245 172.521 103.245 166.998V51.9932Z" fill="white" style="fill:white;fill-opacity:1;"/>
<path d="M46.9932 108.245C46.9932 102.723 51.4703 98.2454 56.9932 98.2454H171.998C177.521 98.2454 181.998 102.723 181.998 108.245V110.746C181.998 116.269 177.521 120.746 171.998 120.746H56.9932C51.4703 120.746 46.9932 116.269 46.9932 110.746V108.245Z" fill="white" style="fill:white;fill-opacity:1;"/>
</svg>
