<svg width="16" height="15" viewBox="0 0 16 15" fill="none" xmlns="http://www.w3.org/2000/svg">
<rect x="0.5" width="15" height="15" rx="7.5" fill="#3E3E3F" style="fill:#3E3E3F;fill:color(display-p3 0.2431 0.2431 0.2471);fill-opacity:1;"/>
<path d="M7.25 3.75C7.25 3.33579 7.58579 3 8 3C8.41421 3 8.75 3.33579 8.75 3.75V11.25C8.75 11.6642 8.41421 12 8 12C7.58579 12 7.25 11.6642 7.25 11.25V3.75Z" fill="white" style="fill:white;fill-opacity:1;"/>
<path d="M3.5 7.5C3.5 7.08579 3.83579 6.75 4.25 6.75H11.75C12.1642 6.75 12.5 7.08579 12.5 7.5C12.5 7.91421 12.1642 8.25 11.75 8.25H4.25C3.83579 8.25 3.5 7.91421 3.5 7.5Z" fill="white" style="fill:white;fill-opacity:1;"/>
</svg>
