<svg width="255" height="255" viewBox="0 0 255 255" fill="none" xmlns="http://www.w3.org/2000/svg">
<path d="M127.5 255C197.916 255 255 197.916 255 127.5C255 57.0837 197.916 0 127.5 0C57.0837 0 0 57.0837 0 127.5C0 197.916 57.0837 255 127.5 255Z" fill="#ECECED" style="fill:#ECECED;fill:color(display-p3 0.9255 0.9255 0.9294);fill-opacity:1;"/>
<path d="M181.218 120.078C185.453 120.098 188.871 123.547 188.851 127.783V127.783C188.832 132.018 185.382 135.436 181.147 135.416L73.7795 134.92C69.544 134.901 66.1263 131.451 66.1459 127.216V127.216C66.1654 122.98 69.6149 119.562 73.8504 119.582L127.534 119.83L181.218 120.078Z" fill="#9D9D9D" style="fill:#9D9D9D;fill:color(display-p3 0.6157 0.6157 0.6157);fill-opacity:1;"/>
<path d="M127.783 66.1496C132.018 66.1692 135.436 69.6186 135.417 73.8542L134.92 181.221C134.901 185.457 131.451 188.875 127.216 188.855V188.855C122.98 188.835 119.562 185.386 119.582 181.15L120.078 73.7832C120.098 69.5477 123.547 66.13 127.783 66.1496V66.1496Z" fill="#9D9D9D" style="fill:#9D9D9D;fill:color(display-p3 0.6157 0.6157 0.6157);fill-opacity:1;"/>
</svg>
