<svg width="255" height="255" viewBox="0 0 255 255" fill="none" xmlns="http://www.w3.org/2000/svg">
<path d="M127.5 255C197.916 255 255 197.916 255 127.5C255 57.0837 197.916 0 127.5 0C57.0837 0 0 57.0837 0 127.5C0 197.916 57.0837 255 127.5 255Z" fill="#ECECED" style="fill:#ECECED;fill:color(display-p3 0.9255 0.9255 0.9294);fill-opacity:1;"/>
<path d="M160.047 84.1281C163.043 81.1339 167.898 81.1351 170.893 84.1308V84.1308C173.887 87.1266 173.886 91.9825 170.89 94.9767L94.9496 170.878C91.9539 173.873 87.098 173.871 84.1038 170.876V170.876C81.1096 167.88 81.1108 163.024 84.1066 160.03L160.047 84.1281Z" fill="#9D9D9D" style="fill:#9D9D9D;fill:color(display-p3 0.6157 0.6157 0.6157);fill-opacity:1;"/>
<path d="M84.127 84.1081C87.1228 81.1138 91.9786 81.1151 94.9729 84.1108L170.874 160.051C173.869 163.047 173.867 167.903 170.872 170.897V170.897C167.876 173.891 163.02 173.89 160.026 170.894L122.075 132.924L84.1243 94.9539C81.13 91.9582 81.1313 87.1023 84.127 84.1081V84.1081Z" fill="#9D9D9D" style="fill:#9D9D9D;fill:color(display-p3 0.6157 0.6157 0.6157);fill-opacity:1;"/>
</svg>
