<svg width="255" height="255" viewBox="0 0 255 255" fill="none" xmlns="http://www.w3.org/2000/svg">
<path d="M88.8314 8.38705C63.353 17.2258 41.3804 34.0019 26.1411 56.2514C10.9018 78.5008 3.19907 105.051 4.16431 132.002C5.12954 158.952 14.7119 184.883 31.5038 205.986C48.2957 227.088 71.4121 242.249 97.4576 249.243C118.573 254.691 140.696 254.93 161.925 249.94C181.156 245.62 198.935 236.38 213.522 223.125C228.705 208.908 239.724 190.821 245.397 170.81C251.564 149.049 252.661 126.164 248.605 103.912H130.03V153.1H198.701C197.328 160.945 194.387 168.432 190.053 175.114C185.72 181.796 180.083 187.535 173.479 191.987C165.094 197.534 155.641 201.266 145.728 202.944C135.786 204.793 125.588 204.793 115.646 202.944C105.57 200.861 96.0371 196.702 87.656 190.732C74.1918 181.201 64.082 167.661 58.7693 152.044C53.3668 136.134 53.3668 118.886 58.7693 102.976C62.551 91.8242 68.8026 81.6704 77.0576 73.2726C86.5044 63.4859 98.4643 56.4903 111.625 53.0534C124.786 49.6165 138.639 49.871 151.665 53.789C161.841 56.9126 171.146 62.3701 178.838 69.7265C186.581 62.0234 194.311 54.3003 202.028 46.5574C206.012 42.3937 210.355 38.4292 214.279 34.166C202.537 23.2383 188.753 14.7353 173.719 9.14408C146.34 -0.797138 116.383 -1.0643 88.8314 8.38705Z" fill="white" style="fill:white;fill-opacity:1;"/>
<path d="M88.8317 8.38709C116.381 -1.07068 146.338 -0.810556 173.719 9.1242C188.756 14.7534 202.534 23.2974 214.26 34.2656C210.275 38.5289 206.072 42.5133 202.008 46.657C194.278 54.3734 186.555 62.0633 178.839 69.7265C171.146 62.3701 161.841 56.9126 151.665 53.789C138.644 49.8573 124.791 49.5881 111.627 53.0109C98.4624 56.4338 86.4951 63.4165 77.038 73.193C68.783 81.5907 62.5314 91.7445 58.7497 102.896L17.4517 70.9219C32.2339 41.608 57.8283 19.1852 88.8317 8.38709Z" fill="#E33629" style="fill:#E33629;fill:color(display-p3 0.8902 0.2118 0.1608);fill-opacity:1;"/>
<path d="M6.49467 102.598C8.71439 91.5967 12.3996 80.9431 17.4517 70.9219L58.7497 102.976C53.3472 118.886 53.3472 136.134 58.7497 152.044C44.9904 162.669 31.2244 173.347 17.4517 184.078C4.80431 158.903 0.947078 130.219 6.49467 102.598Z" fill="#F8BD00" style="fill:#F8BD00;fill:color(display-p3 0.9725 0.7412 0.0000);fill-opacity:1;"/>
<path d="M130.03 103.893H248.605C252.661 126.144 251.564 149.029 245.398 170.79C239.725 190.801 228.705 208.888 213.523 223.105C200.195 212.706 186.807 202.386 173.48 191.987C180.087 187.53 185.727 181.785 190.061 175.096C194.395 168.407 197.333 160.912 198.701 153.06H130.03C130.01 136.684 130.03 120.288 130.03 103.893Z" fill="#587DBD" style="fill:#587DBD;fill:color(display-p3 0.3451 0.4902 0.7412);fill-opacity:1;"/>
<path d="M17.4316 184.078C31.2043 173.453 44.9703 162.775 58.7297 152.044C64.053 167.666 74.1772 181.207 87.6563 190.732C96.0634 196.674 105.616 200.799 115.706 202.844C125.648 204.693 135.846 204.693 145.788 202.844C155.701 201.166 165.154 197.434 173.539 191.887C186.867 202.287 200.255 212.606 213.582 223.005C198.997 236.268 181.218 245.515 161.985 249.84C140.756 254.831 118.633 254.591 97.5176 249.143C80.8171 244.684 65.2178 236.823 51.6973 226.053C37.3866 214.692 25.6983 200.374 17.4316 184.078Z" fill="#319F43" style="fill:#319F43;fill:color(display-p3 0.1922 0.6235 0.2627);fill-opacity:1;"/>
</svg>
