<svg width="614" height="526" viewBox="0 0 614 526" fill="none" xmlns="http://www.w3.org/2000/svg">
<path d="M346.88 32.5766C346.338 22.8211 353.723 14.4349 363.469 13.7388L373.303 13.0364C374.252 12.9686 375.204 12.9686 376.153 13.0364L385.07 13.6733C395.484 14.4171 403.553 23.0829 403.553 33.5238V33.5238V33.5238C403.553 42.9362 394.707 49.8427 385.576 47.5598L382.881 46.8861C380.232 46.2237 377.46 46.2237 374.811 46.8861L370.61 47.9362L362.374 49.9951V49.9951C354.624 51.1023 347.589 45.3346 347.154 37.5177L346.88 32.5766Z" fill="#FEDBAB" style="fill:#FEDBAB;fill:color(display-p3 0.9961 0.8588 0.6706);fill-opacity:1;"/>
<path d="M303.953 61.4139C296.298 48.0806 331.971 63.4087 343.676 26.5969C346.669 17.1844 357.954 11.5096 365.972 17.2764V17.2764C369.182 19.5847 371.094 23.2887 371.117 27.2421L371.212 43.6337C371.236 47.7739 369.976 51.8206 367.601 55.2121C354.886 73.371 345.043 87.0843 336.723 93.4405C331.58 97.3704 325.145 94.2218 321.496 88.8754C316.469 81.5093 309.231 70.6076 303.953 61.4139Z" fill="#FEDBAB" style="fill:#FEDBAB;fill:color(display-p3 0.9961 0.8588 0.6706);fill-opacity:1;"/>
<path d="M74.126 130.296C74.126 120.062 82.4223 111.765 92.6563 111.765H253.252C263.486 111.765 271.782 120.062 271.782 130.296V130.296V130.296C271.782 140.53 263.486 148.826 253.252 148.826H92.6563C82.4223 148.826 74.126 140.53 74.126 130.296V130.296Z" fill="#FEDBAB" style="fill:#FEDBAB;fill:color(display-p3 0.9961 0.8588 0.6706);fill-opacity:1;"/>
<path d="M156.486 64.4107C156.486 54.1767 164.782 45.8804 175.016 45.8804H335.612C345.846 45.8804 354.142 54.1767 354.142 64.4107V64.4107V64.4107C354.142 74.6446 345.846 82.9409 335.612 82.9409H175.016C164.782 82.9409 156.486 74.6446 156.486 64.4107V64.4107Z" fill="#FEDBAB" style="fill:#FEDBAB;fill:color(display-p3 0.9961 0.8588 0.6706);fill-opacity:1;"/>
<path d="M375.351 129.326C375.66 119.628 383.774 112.016 393.472 112.326L446.576 114.021C456.274 114.33 463.886 122.443 463.576 132.142V132.142V132.142C463.266 141.84 455.153 149.452 445.455 149.142L392.351 147.447C382.653 147.138 375.041 139.025 375.351 129.326V129.326Z" fill="#FEDBAB" style="fill:#FEDBAB;fill:color(display-p3 0.9961 0.8588 0.6706);fill-opacity:1;"/>
<path d="M81.8254 240.307C77.2359 243.103 71.4821 243.586 66.8848 240.802C20.8317 212.916 18.1406 135.481 85.6617 112.693C87.5382 112.059 89.5505 111.766 91.531 111.766L94.7206 111.766V111.766C98.2566 111.766 101.246 114.384 101.714 117.889L102.97 127.311C104.145 136.121 98.393 144.225 91.1888 149.429C74.1873 161.713 64.7539 185.968 84.5863 210.217C92.1334 219.445 92.0055 234.104 81.8254 240.307V240.307Z" fill="#FEDBAB" style="fill:#FEDBAB;fill:color(display-p3 0.9961 0.8588 0.6706);fill-opacity:1;"/>
<path d="M119.697 135.012C110.355 134.678 102.78 126.928 104.704 117.781C112.373 81.3335 143.666 52.9624 167.022 47.0121C168.324 46.6804 169.659 46.5617 171.003 46.5617L175.159 46.5616V46.5616C179.058 46.5615 182.741 48.354 185.146 51.4228L186.433 53.064C193.809 62.4746 189.273 76.0572 178.27 80.7379C167.777 85.2019 157.328 91.3137 152.03 99.6316C143.796 112.559 135.014 135.558 119.697 135.012V135.012Z" fill="#FEDBAB" style="fill:#FEDBAB;fill:color(display-p3 0.9961 0.8588 0.6706);fill-opacity:1;"/>
<path d="M444.451 114.249C446.003 113.967 447.603 113.888 449.166 114.095C505.307 121.517 533.663 197.517 473.934 240.996C472.37 242.135 470.584 243.004 468.743 243.598L465.641 244.598V244.598C462.272 245.684 458.619 244.116 457.085 240.927L453.559 233.593C449.686 225.538 453.211 216.005 459.704 209.863C479.149 191.467 483.229 160.514 438.555 146.768V146.768C421.215 143.3 421.433 118.434 438.831 115.271L444.451 114.249Z" fill="#FEDBAB" style="fill:#FEDBAB;fill:color(display-p3 0.9961 0.8588 0.6706);fill-opacity:1;"/>
<path d="M377.94 23.0165C378.956 17.395 384.07 13.3337 389.654 14.5406C441.842 25.8218 470.923 96.2214 408.508 139.363C407.027 140.387 405.351 141.185 403.638 141.737L400.341 142.8V142.8C396.625 143.998 392.566 143.443 389.309 141.29L382.962 137.097C377.279 133.342 375.722 125.688 379.485 120.011V120.011C380.665 118.23 382.315 116.828 384.116 115.678C406.886 101.142 416.555 56.7329 375.451 43.4769C370.304 41.8171 369.068 32.1646 374.16 30.3458V30.3458C375.785 29.7656 376.975 28.3615 377.282 26.6641L377.94 23.0165Z" fill="#FEDBAB" style="fill:#FEDBAB;fill:color(display-p3 0.9961 0.8588 0.6706);fill-opacity:1;"/>
<path d="M44.1357 223.853C55.4736 219.298 67.9849 226.969 69.027 239.143C78.4539 349.276 79.7418 379.265 169.066 484.971C174.928 491.909 172.386 502.639 163.957 506.026V506.026L159.277 507.906C151.713 510.945 143.027 509.09 137.472 503.125C60.9114 420.926 36.182 358.151 32.7801 241.073C32.5608 233.523 37.1267 226.669 44.1357 223.853V223.853Z" fill="#CAE8F9" style="fill:#CAE8F9;fill:color(display-p3 0.7922 0.9098 0.9765);fill-opacity:1;"/>
<path d="M380.963 507.839C369.646 503.233 365.984 489.021 373.697 479.544C443.475 393.818 463.395 371.363 472.658 233.281C473.266 224.218 482.552 218.271 490.966 221.696V221.696L495.637 223.597C503.187 226.67 508.142 234.042 507.989 242.191C505.891 354.502 480.033 416.821 401.096 503.353C396.006 508.933 387.959 510.687 380.963 507.839V507.839Z" fill="#CAE8F9" style="fill:#CAE8F9;fill:color(display-p3 0.7922 0.9098 0.9765);fill-opacity:1;"/>
<path d="M437.967 436.736C439.616 428.88 446.374 423.258 454.25 421.706C538.495 405.105 609.493 282.517 506.304 286.729C500.466 286.967 494.718 284.432 491.412 279.615V279.615C487.236 273.529 487.785 265.372 492.739 259.901L494.624 257.819C498.365 253.687 503.696 251.355 509.269 251.411L525.112 251.571C661.962 252.946 566.605 462.413 451.439 456.071C441.879 455.544 436 446.106 437.967 436.736V436.736Z" fill="#CAE8F9" style="fill:#CAE8F9;fill:color(display-p3 0.7922 0.9098 0.9765);fill-opacity:1;"/>
<path d="M32.9391 240.894C32.9391 230.66 41.2354 222.364 51.4694 222.364H487.96C498.194 222.364 506.49 230.66 506.49 240.894V240.894V240.894C506.49 251.128 498.194 259.424 487.96 259.424H51.4694C41.2354 259.424 32.9391 251.128 32.9391 240.894V240.894Z" fill="#CAE8F9" style="fill:#CAE8F9;fill:color(display-p3 0.7922 0.9098 0.9765);fill-opacity:1;"/>
<path d="M32.938 498.259C32.938 488.025 41.2343 479.729 51.4683 479.729H487.959C498.193 479.729 506.489 488.025 506.489 498.259V498.259V498.259C506.489 508.493 498.193 516.789 487.959 516.789H51.4682C41.2342 516.789 32.938 508.493 32.938 498.259V498.259Z" fill="#528EB0" style="fill:#528EB0;fill:color(display-p3 0.3223 0.5574 0.6906);fill-opacity:1;"/>
</svg>
